<svg width="12" height="18" viewBox="0 0 12 18" fill="none" xmlns="http://www.w3.org/2000/svg">
<path d="M3.00086 18C4.65653 18 6.00026 16.656 6.00026 15V12H3.00086C1.34519 12 0.00146484 13.344 0.00146484 15C0.00146484 16.656 1.34519 18 3.00086 18Z" fill="#0ACF83"/>
<path d="M0.00146484 9C0.00146484 7.344 1.34519 6 3.00086 6H6.00026V12H3.00086C1.34519 12 0.00146484 10.656 0.00146484 9Z" fill="#A259FF"/>
<path d="M0.00195312 3.00001C0.00195312 1.34401 1.34568 7.62939e-06 3.00135 7.62939e-06H6.00075V6.00001H3.00135C1.34568 6.00001 0.00195312 4.65601 0.00195312 3.00001Z" fill="#F24E1E"/>
<path d="M6 7.62939e-06H8.9994C10.6551 7.62939e-06 11.9988 1.34401 11.9988 3.00001C11.9988 4.65601 10.6551 6.00001 8.9994 6.00001H6V7.62939e-06Z" fill="#FF7262"/>
<path d="M11.9988 9C11.9988 10.656 10.6551 12 8.9994 12C7.34373 12 6 10.656 6 9C6 7.344 7.34373 6 8.9994 6C10.6551 6 11.9988 7.344 11.9988 9Z" fill="#1ABCFE"/>
</svg>
