<svg width="136" height="42" viewBox="0 0 136 42" fill="none" xmlns="http://www.w3.org/2000/svg">
<rect width="42" height="42" rx="16" fill="black"/>
<path d="M65.2854 13.363V28H62.1934V21.6825H56.3987V28H53.2955V13.363H56.3987V19.1021H62.1934V13.363H65.2854ZM77.9771 28H75.8416L75.2521 26.4762H75.1743C74.6552 27.1287 74.1251 27.5811 73.5838 27.8332C73.0425 28.0779 72.3344 28.2002 71.4594 28.2002C70.3768 28.2002 69.5278 27.8925 68.9124 27.277C68.297 26.6542 67.9892 25.7681 67.9892 24.6188C67.9892 23.4695 68.3971 22.6094 69.2127 22.0384C70.0357 21.4675 71.2963 21.1523 72.9943 21.093L74.9407 21.0374V20.548C74.9407 19.4135 74.3586 18.8463 73.1945 18.8463C72.3121 18.8463 71.2629 19.1132 70.0469 19.6471L69.0347 17.5895C70.3175 16.9147 71.73 16.5774 73.2723 16.5774C74.8221 16.5774 75.9936 16.911 76.787 17.5784C77.5804 18.2383 77.9771 19.2282 77.9771 20.548V28ZM74.9407 23.7401V22.817L73.7617 22.8504C72.8645 22.88 72.2009 23.0431 71.7708 23.3397C71.3408 23.6289 71.1257 24.0738 71.1257 24.6744C71.1257 25.5345 71.6188 25.9646 72.605 25.9646C73.3168 25.9646 73.8841 25.7644 74.3067 25.364C74.7294 24.9562 74.9407 24.4149 74.9407 23.7401ZM91.4421 20.7037V28H88.3834V21.4601C88.3834 20.6444 88.2389 20.0401 87.9497 19.6471C87.6605 19.2467 87.2045 19.0465 86.5816 19.0465C85.7363 19.0465 85.1209 19.332 84.7353 19.9029C84.3497 20.4665 84.157 21.4119 84.157 22.7391V28H81.1094V16.8109H83.4451L83.8566 18.2457H84.0235C84.3572 17.7118 84.8206 17.304 85.4138 17.0222C86.0144 16.7405 86.6966 16.5996 87.4603 16.5996C88.7653 16.5996 89.7552 16.9518 90.43 17.6562C91.1047 18.3532 91.4421 19.3691 91.4421 20.7037ZM101.298 26.5541C100.601 27.6515 99.5667 28.2002 98.1949 28.2002C96.8306 28.2002 95.7739 27.6923 95.025 26.6764C94.2761 25.6458 93.9017 24.2184 93.9017 22.3943C93.9017 20.5703 94.2835 19.1503 95.0473 18.1345C95.8184 17.1112 96.8899 16.5996 98.2616 16.5996C99.6334 16.5996 100.69 17.1483 101.431 18.2457H101.532C101.376 17.4078 101.298 16.6626 101.298 16.0101V12.4287H104.357V28H102.021L101.431 26.5541H101.298ZM96.9937 22.4611C96.9937 24.6633 97.7278 25.7644 99.1959 25.7644C99.9745 25.7644 100.545 25.5383 100.909 25.0859C101.279 24.6262 101.48 23.8551 101.509 22.7725V22.4499C101.509 21.2487 101.324 20.3886 100.953 19.8696C100.582 19.3431 99.9782 19.0799 99.1403 19.0799C98.4581 19.0799 97.928 19.3728 97.5498 19.9585C97.1791 20.5369 96.9937 21.3711 96.9937 22.4611ZM114.052 19.8807C113.689 19.332 113.103 19.0576 112.295 19.0576C111.487 19.0576 110.901 19.332 110.537 19.8807C110.174 20.422 109.992 21.2599 109.992 22.3943C109.992 23.5214 110.178 24.363 110.549 24.9191C110.919 25.4752 111.505 25.7533 112.306 25.7533C113.107 25.7533 113.689 25.4752 114.052 24.9191C114.423 24.363 114.608 23.5214 114.608 22.3943C114.608 21.2599 114.423 20.422 114.052 19.8807ZM112.328 16.5996C113.952 16.5774 115.264 17.1001 116.265 18.1678C117.267 19.2282 117.752 20.6333 117.723 22.3832C117.723 24.2073 117.241 25.6346 116.277 26.6653C115.32 27.6886 113.985 28.2002 112.273 28.2002C110.649 28.215 109.336 27.6886 108.335 26.6208C107.342 25.5531 106.856 24.1405 106.878 22.3832C106.878 20.5592 107.353 19.1392 108.302 18.1234C109.258 17.1075 110.601 16.5996 112.328 16.5996ZM126.438 16.8109V19.1021H123.802V28H120.743V19.1021H119.064V17.634L120.743 16.8109V15.9879C120.743 14.7125 121.058 13.7819 121.689 13.1962C122.319 12.6104 123.324 12.3175 124.703 12.3175C125.756 12.3175 126.69 12.4732 127.506 12.7846L126.727 15.0313C126.104 14.8386 125.559 14.7422 125.092 14.7422C124.632 14.7422 124.302 14.8645 124.102 15.1092C123.902 15.3539 123.802 15.6876 123.802 16.1102V16.8109H126.438ZM134.387 16.8109V19.1021H131.751V28H128.693V19.1021H127.013V17.634L128.693 16.8109V15.9879C128.693 14.7125 129.008 13.7819 129.638 13.1962C130.268 12.6104 131.273 12.3175 132.652 12.3175C133.705 12.3175 134.639 12.4732 135.455 12.7846L134.676 15.0313C134.054 14.8386 133.509 14.7422 133.041 14.7422C132.582 14.7422 132.252 14.8645 132.052 15.1092C131.851 15.3539 131.751 15.6876 131.751 16.1102V16.8109H134.387Z" fill="black"/>
<path d="M9.84033 17.5519C8.39247 18.9997 8.39401 21.3487 9.84377 22.7985L19.3502 32.3049C20.7999 33.7546 23.1489 33.7562 24.5968 32.3083C26.0446 30.8605 26.0431 28.5115 24.5933 27.0617L22.6246 25.0929C22.1534 24.6218 21.39 24.6213 20.9194 25.0918C20.4489 25.5624 20.4494 26.3258 20.9205 26.797L22.9221 28.7986C23.4114 29.2878 23.4119 30.0806 22.9233 30.5693C22.4346 31.0579 21.6418 31.0574 21.1525 30.5681L11.5805 20.9961C11.0912 20.5068 11.0907 19.714 11.5794 19.2254C12.068 18.7367 12.8608 18.7372 13.3501 19.2265L16.2001 22.0766C17.7367 23.6132 20.2129 23.6364 21.774 22.1451L21.7747 22.1458L22.4081 21.5124C22.9148 21.0057 23.737 21.0062 24.2444 21.5136L27.1929 24.4621C28.6427 25.9119 30.9916 25.9134 32.4395 24.4656C33.8874 23.0177 33.8858 20.6687 32.4361 19.219L22.9297 9.71259C21.4799 8.26283 18.9453 8.4469 17.4974 9.89476C16.0496 11.3426 16.2367 13.506 17.6865 14.9557L19.6553 16.9245C20.1264 17.3957 20.8899 17.3962 21.3604 16.9256C21.831 16.4551 21.8305 15.6917 21.3593 15.2205L19.3577 13.2189C18.8684 12.7296 18.8679 11.9368 19.3566 11.4482C19.8452 10.9595 20.638 10.96 21.1273 11.4493L30.6993 21.0214C31.1886 21.5107 31.1891 22.3034 30.7005 22.7921C30.2118 23.2807 29.419 23.2802 28.9297 22.7909L26.0797 19.9409L26.0789 19.9416C24.5382 18.4696 22.1103 18.468 20.5715 19.938L20.5707 19.9373L19.9374 20.5706C19.4306 21.0774 18.6085 21.0769 18.1011 20.5694L15.0869 17.5553C13.6372 16.1056 11.2882 16.104 9.84033 17.5519Z" fill="white"/>
</svg>
